<?xml version="1.0" encoding="utf-8"?>
<!-- Generator: Adobe Illustrator 22.1.0, SVG Export Plug-In . SVG Version: 6.00 Build 0)  -->
<svg version="1.1" id="Capa_1" xmlns="http://www.w3.org/2000/svg" xmlns:xlink="http://www.w3.org/1999/xlink" x="0px" y="0px"
	 viewBox="0 0 120 120" style="enable-background:new 0 0 120 120;" xml:space="preserve">
<style type="text/css">
	.st0{fill:#FFE600;}
	.st1{fill:none;}
</style>
<g>
	<path class="st0" d="M3,13.9L106.2,3L117,106.1L13.8,117L3,13.9z"/>
	<path class="st1" d="M31.3,29.4l-3,0.3l0.9,8.4l3-0.3c2-0.2,3.4-0.7,4.2-1.5c0.6-0.7,1-1.4,0.9-3.1c-0.2-1.6-0.6-2.6-1.5-3.2
		C34.8,29.4,33.3,29.2,31.3,29.4L31.3,29.4z M32.9,77.8l-3,0.3l0.6,6l3-0.3c1.5-0.2,2.5-0.5,3-1c0.5-0.5,0.7-1,0.6-2.2
		c-0.1-1.4-0.5-1.9-1.1-2.3C35.5,77.8,34.4,77.7,32.9,77.8L32.9,77.8z M38.7,97.3c0.6-0.7,0.8-1.5,0.6-2.8c-0.1-1.3-0.5-2.1-1.3-2.7
		c-0.7-0.5-1.9-0.7-3.4-0.6l-3.3,0.3l0.8,7.3l3.5-0.4C37,98.3,38.1,97.9,38.7,97.3L38.7,97.3z M30.2,47.6l1.1,10.1l3.5-0.4
		c2.1-0.2,3.5-0.8,4.3-1.7c0.8-1,1.1-2.1,0.9-3.9c-0.2-1.8-0.7-2.9-1.8-3.7c-1-0.7-2.6-1-4.7-0.8L30.2,47.6L30.2,47.6z"/>
	<path d="M100.3,28.2L99,15.1L98.6,15c-2.7-0.9-5.5-1.6-8.3-1.9c-2.8-0.3-5.5-0.3-8.2-0.1c-3.9,0.4-7.1,1.2-9.4,2.4
		c-2.6,1.4-4.2,2.9-5.1,5c-0.6,1.3-1,2.4-1.1,4c-0.1,1.7,0,4,0.3,7.5l1.5,14.7c0.4,3.8,0.9,6.4,1.5,8.1c0.6,1.7,1.3,2.4,2.3,3.4
		l0.3,0.3c1.5,1.6,3.5,2.7,6,3.2c2,0.5,5.1,1,9,0.6c3-0.3,5.8-1.4,8.4-2.5c2.7-1.1,5.1-2.6,7.3-4.4l0.2-0.2L101,33.7l-16.4,1.7
		l0.9,8.9l5.7-0.6l0.6,5.9c-0.8,0.9-2.9,1.8-5.7,2.1c-1.7,0.2-2.9-0.2-3.8-1.1c-0.9-1-1.4-2.5-1.7-4.9l-1.6-15.5
		c-0.2-2.3-0.1-3.9,0.6-5.1c0.6-1.1,1.8-1.7,3.4-1.9c1.6-0.2,2.8,0.2,3.6,1c0.9,0.9,1.4,2.2,1.6,4.2l0.1,0.8L100.3,28.2L100.3,28.2z
		 M36.5,67.3c3.9-0.4,6.8-1.6,8.6-2.5c2.3-1.1,4-2.5,5.2-4.4l0.2-0.3c0.7-1.2,1.3-2.1,1.5-3.8c0.2-1.9,0.5-2.1,0.4-3.7
		c-0.3-3.2-1.2-5.5-2.8-7.5c-1.3-1.6-3-2.7-5.2-3.3c1.6-1,2.9-2.3,3.7-4c1.1-2.1,1.4-4.3,1.1-7.1c-0.5-4.5-2-7.2-5.2-9.3
		c-2.9-1.9-7.4-2.6-13.3-2l-18.6,2l0.9,8.3l0.4,0.1c0.8,0.1,1.4,0.4,1.8,0.8c0.4,0.5,0.6,1.5,0.8,3.3l2.3,22.2
		c0.2,1.8,0.2,2.8-0.1,3.4c-0.2,0.5-0.8,0.9-1.6,1.1l-0.4,0.1l0.9,8.5L36.5,67.3L36.5,67.3z M38.2,48.1c1.1,0.8,1.6,1.9,1.8,3.7
		c0.2,1.8-0.1,3-0.9,3.9c-0.8,0.9-2.2,1.5-4.3,1.7l-3.5,0.4l-1.1-10.1l3.3-0.3C35.7,47.1,37.2,47.3,38.2,48.1L38.2,48.1z M36.3,36.4
		c-0.7,0.7-2.1,1.2-4.2,1.5l-3,0.3l-0.9-8.4l3-0.3c2-0.2,3.5,0,4.4,0.6c0.9,0.7,1.4,1.6,1.5,3.2C37.3,34.9,36.9,35.7,36.3,36.4
		L36.3,36.4z M50.2,23c0.1,0.5,0.2,0.9,0.3,1.5L56.3,50l0.1,0.4l6.5-0.7l0.5-26.4c0-0.7,0-1.1,0-1.7l0-0.2c0-0.4,0-0.6,0-0.9
		c-0.2-2-0.9-3.3-2.3-4.4c-1.3-1-3.1-1.5-5.1-1.2c-2.1,0.2-3.6,1-4.7,2.3c-1.1,1.4-1.5,2.8-1.3,4.8c0,0.3,0.1,0.4,0.1,0.7
		C50.1,22.7,50.2,23,50.2,23z M55.9,55.3c-1.1,1.3-1.5,2.8-1.4,4.5c0.2,1.6,0.9,3,2.3,4.1c1.3,1.1,2.8,1.5,4.5,1.4
		c1.7-0.2,3.1-0.9,4.1-2.2c1.1-1.3,1.5-2.8,1.3-4.5c-0.2-1.7-0.9-3.1-2.2-4.1c-1.3-1.1-2.8-1.5-4.5-1.3C58.4,53.2,57,54,55.9,55.3
		L55.9,55.3z M43.1,86.9c1.1-0.7,2-1.7,2.6-2.9c0.8-1.6,1.1-3.3,0.9-5.4c-0.4-3.4-1.5-5.6-3.9-7.1c-2.1-1.4-5.2-1.8-10-1.3l-15,1.6
		l0.7,6.3l0.4,0c0.6,0.1,1,0.3,1.2,0.6c0.3,0.4,0.4,1.1,0.6,2.4l1.7,16.5c0.1,1.3,0.1,2.2-0.1,2.6c-0.2,0.3-0.5,0.6-1.1,0.8
		l-0.4,0.1l0.7,6.6l15.5-1.6c4.6-0.5,7.9-1.7,9.7-3.5c2-2,2.7-4.2,2.3-7.7c-0.3-2.4-0.9-4-2.1-5.5C45.9,88.2,44.6,87.4,43.1,86.9
		L43.1,86.9z M31.3,91.5l3.3-0.3c1.6-0.2,2.7,0,3.4,0.6c0.8,0.6,1.1,1.3,1.3,2.7c0.1,1.3,0,2.2-0.6,2.8c-0.6,0.6-1.6,1.1-3.1,1.2
		l-3.5,0.4L31.3,91.5L31.3,91.5z M36.6,82.8c-0.5,0.5-1.6,0.9-3,1l-3,0.3l-0.6-6l3-0.3c1.5-0.2,2.6,0,3.2,0.5c0.6,0.4,1,0.9,1.1,2.3
		C37.3,81.8,37.1,82.3,36.6,82.8L36.6,82.8z M88.5,100.7l-0.7-6.6l0.4-0.1c0.5-0.1,0.9-0.4,1-0.7c0.2-0.4,0.2-1.2,0.1-2.4l-0.5-4.4
		l-8.5-12.9c-0.4-0.6-0.7-1-1.1-1.3c-0.3-0.2-0.6-0.4-0.8-0.5l-0.4-0.1l-0.7-6.3L88,64.4l0.5,4.5c0.1,0.9,0.2,1.6,0.4,2.2
		c0.2,0.6,0.4,1.1,0.7,1.6l2.3,3.4l1.6-3.8c0.2-0.5,0.3-1.1,0.4-1.7c0.1-0.6,0-1.4,0-2.3l-0.5-4.5l10.5-1.1l0.7,6.3l-0.3,0.2
		c-0.3,0.1-0.5,0.3-0.7,0.6c-0.3,0.3-0.5,0.8-0.8,1.4l-5.6,14.4l0.5,4.4c0.1,1.2,0.3,1.9,0.6,2.3c0.2,0.3,0.6,0.5,1.2,0.5l0.4,0
		l0.7,6.6L88.5,100.7L88.5,100.7z M64.6,95.9c1.2-0.1,1.8-0.5,2.2-1.3c0.5-0.9,0.6-2,0.4-3.8L65.8,77c-0.2-1.5-0.4-2.3-0.7-2.8
		c-0.3-0.4-0.7-0.7-1.3-0.8l-0.4-0.1l-0.6-5.7l13.4-2l0.7,6.2l-0.3,0.2c-0.7,0.3-1.1,0.7-1.3,1c-0.2,0.4-0.2,1-0.1,2.2l1.5,14.5
		c0.5,4.6-0.1,7.5-1.9,9.9c-1.7,2.3-4.8,3.7-9.4,4.2c-4.6,0.5-7.9-0.3-10.1-2.1c-2.3-2-3.5-4.7-4-9.3l-1.5-14.5
		c-0.1-1.1-0.3-1.7-0.6-2.1c-0.2-0.3-0.7-0.6-1.5-0.7L47.4,75l-0.7-6.2l13.5-0.8l0.6,5.7l-0.3,0.2c-0.6,0.3-0.9,0.6-1.1,1.1
		c-0.2,0.5-0.2,1.4-0.1,2.8l1.5,13.9c0.2,1.7,0.6,2.8,1.2,3.6c0.6,0.7,1.2,1,2.4,0.8L64.6,95.9L64.6,95.9z M98.6,12.3
		c0.1,0.7-0.4,1.3-1.1,1.3c-0.7,0.1-1.3-0.4-1.4-1.1c-0.1-0.7,0.4-1.2,1.1-1.3C98,11.1,98.5,11.6,98.6,12.3L98.6,12.3z M96.5,12.5
		c0.1,0.5,0.5,0.9,1,0.9c0.5-0.1,0.9-0.5,0.8-1c-0.1-0.5-0.5-0.9-1-0.9C96.8,11.5,96.4,12,96.5,12.5z M97.3,13.1l-0.3,0l-0.1-1.2
		c0.1,0,0.3-0.1,0.5-0.1c0.2,0,0.3,0,0.4,0c0.1,0,0.1,0.1,0.1,0.2c0,0.1-0.1,0.2-0.2,0.3l0,0c0.1,0,0.2,0.1,0.2,0.3
		C98,12.9,98,12.9,98,13l-0.3,0c0,0-0.1-0.1-0.1-0.3c0-0.1-0.1-0.2-0.3-0.2l-0.1,0C97.2,12.6,97.3,13.1,97.3,13.1z M97.2,12.4l0.1,0
		c0.2,0,0.3-0.1,0.3-0.2c0-0.1-0.1-0.2-0.3-0.2l-0.2,0L97.2,12.4z M55.9,55.3c-1.1,1.3-1.5,2.8-1.4,4.5c0.2,1.6,0.9,3,2.3,4.1
		c1.3,1.1,2.8,1.5,4.5,1.4c1.7-0.2,3.1-0.9,4.1-2.2c1.1-1.3,1.5-2.8,1.3-4.5c-0.2-1.7-0.9-3.1-2.2-4.1c-1.3-1.1-2.8-1.5-4.5-1.3
		C58.4,53.2,57,54,55.9,55.3L55.9,55.3z"/>
</g>
</svg>
